<?xml version="1.0" encoding="iso-8859-1"?>
<!-- Generator: Adobe Illustrator 18.0.0, SVG Export Plug-In . SVG Version: 6.00 Build 0)  -->
<!DOCTYPE svg PUBLIC "-//W3C//DTD SVG 1.1//EN" "http://www.w3.org/Graphics/SVG/1.1/DTD/svg11.dtd">
<svg version="1.1" id="Capa_1" xmlns="http://www.w3.org/2000/svg" xmlns:xlink="http://www.w3.org/1999/xlink" x="0px" y="0px"
	 viewBox="0 0 493.344 493.344" style="enable-background:new 0 0 493.344 493.344;" xml:space="preserve">
<path id="cup" style="fill:#5c341e;" d="M379.146,109.951c-7.619,0-15.066,0.94-22.263,2.645V73.697c0-0.555,0-3.274,0-4.174
	c0-47.623-92.502-69.313-178.451-69.313C92.501,0.209,0,21.9,0,69.523c0,0.9,0,3.619,0,4.174v350.145
	c0,47.61,92.501,69.292,178.433,69.292c85.949,0,178.451-21.682,178.451-69.31v-43.273c7.196,1.71,14.644,2.646,22.263,2.646
	c62.974,0,114.197-61.29,114.197-136.624C493.344,171.24,442.12,109.951,379.146,109.951z M178.433,33.348
	c94.396,0,145.312,25.678,145.312,36.175c0,10.493-50.916,36.158-145.312,36.158c-94.379,0-145.295-25.665-145.295-36.158
	C33.138,59.026,84.054,33.348,178.433,33.348z M379.146,333.492c-7.847,0-15.289-2.173-22.263-5.656V165.311
	c6.974-3.478,14.416-5.656,22.263-5.656c35.564,0,64.491,38.995,64.491,86.918C443.638,294.497,414.71,333.492,379.146,333.492z"/>
<g>
</g>
<g>
</g>
<g>
</g>
<g>
</g>
<g>
</g>
<g>
</g>
<g>
</g>
<g>
</g>
<g>
</g>
<g>
</g>
<g>
</g>
<g>
</g>
<g>
</g>
<g>
</g>
<g>
</g>
</svg>
